PathFileType	4	(x/y/z)	A01_FAST_T0021.trc
DataRate	CameraRate	NumFrames	NumMarkers	Units	OrigDataRate	OrigDataStartFrame	OrigNumFrames
240	240	11	48	mm	240	1	287
Frame#	Time	TOP_HEAD			R_AC			L_AC			R_ASIS			L_ASIS			R_PSIS			L_PSIS			SACRAL			L_IC			R_IC			L_GT			R_GT			R_LAT_KNEE			R_MED_KNEE			L_MED_KNEE			L_LAT_KNEE			R_TOE			L_TOE			R_1ST_MET			L_1ST_MET			L_5TH_MET			R_5TH_MET			R_LAT_ANK			R_MED_ANK			L_MED_ANK			L_LAT_ANK			L_HEEL_SUP			R_HEEL_SUP			L_HEEL_LAT			R_HEEL_LAT			L_HEEL_MED			R_HEEL_MED			R_LL_PROX_POST			R_LL_PROX_ANT			R_LL_DIST_ANT			R_LL_DIST_POST			R_THIGH_PROX_POST			R_THIGH_PROX_ANT			R_THIGH_DIST_ANT			R_THIGH_DIST_POST			L_PROS_PROX_ANT			L_PROS_PROX_POST			L_PROS_DIST_POST			L_PROS_DIST_ANT			L_THIGH_PROX_ANT			L_THIGH_PROX_POST			L_THIGH_DIST_POST			L_THIGH_DIST_ANT			
		X1	Y1	Z1	X2	Y2	Z2	X3	Y3	Z3	X4	Y4	Z4	X5	Y5	Z5	X6	Y6	Z6	X7	Y7	Z7	X8	Y8	Z8	X9	Y9	Z9	X10	Y10	Z10	X11	Y11	Z11	X12	Y12	Z12	X13	Y13	Z13	X14	Y14	Z14	X15	Y15	Z15	X16	Y16	Z16	X17	Y17	Z17	X18	Y18	Z18	X19	Y19	Z19	X20	Y20	Z20	X21	Y21	Z21	X22	Y22	Z22	X23	Y23	Z23	X24	Y24	Z24	X25	Y25	Z25	X26	Y26	Z26	X27	Y27	Z27	X28	Y28	Z28	X29	Y29	Z29	X30	Y30	Z30	X31	Y31	Z31	X32	Y32	Z32	X33	Y33	Z33	X34	Y34	Z34	X35	Y35	Z35	X36	Y36	Z36	X37	Y37	Z37	X38	Y38	Z38	X39	Y39	Z39	X40	Y40	Z40	X41	Y41	Z41	X42	Y42	Z42	X43	Y43	Z43	X44	Y44	Z44	X45	Y45	Z45	X46	Y46	Z46	X47	Y47	Z47	X48	Y48	Z48	

1	0	-795.67	1818.5	318.16	-930.05	1556.5	564.38	-986.62	1555.2	108.41	-957.63	1088.4	542.64	-928.89	1030.7	192.78	-1163.2	1103	395.79	-1143.5	1088.7	268.22	-1173	1067.8	329.92	-979.14	1134.2	148.49	-987.19	1205.4	545.21	-977.75	948.97	145.23	-1044.1	988.81	576.12	-1169.9	599.7	506.94	-1029.7	550.73	384.36	-829.06	568.24	373.93	-848.52	571.19	214.26	-1122.2	64.906	421.43	-452.38	214.37	260.02	-1199.9	53.008	372.35	-511.72	149.67	310.47	-529.6	132.52	182.18	-1230.8	50.347	504.4	-1320.7	154.03	472.04	-1307.6	156.84	369.46	-662.87	161.78	293.5	-684.37	145.24	224.65	-734.64	55.056	260.1	-1421.9	150.16	413.35	-709.94	35.027	227.44	-1422.4	126.18	447.54	-701.92	37.015	292.51	-1417.5	119.79	386.77	-1309.8	454.57	500.14	-1245.3	428.32	521.22	-1260.5	356.11	503.08	-1312.7	371.95	490.17	-1120.5	867.34	549.99	-1048.4	864.98	560.65	-1071.8	776.7	549.21	-1139.6	780.32	537.08	-769.5	518.63	225.68	-817.64	493.26	212.74	-794.16	434.6	217.75	-751.76	465.11	231.14	-873.27	828.66	196.26	-934.75	811.57	162.2	-903.14	744.31	180.36	-848.57	760.23	210.64
2	0.0041812	-789.84	1817.1	317.18	-923.96	1555.3	563.89	-980.71	1553.7	107.97	-952.03	1087.3	542.38	-922.71	1029.2	192.56	-1157.4	1101.6	395.05	-1137.5	1087.1	267.57	-1167.2	1066.3	329.27	-972.38	1133.1	148.2	-981.68	1204.2	544.8	-971.44	947.38	144.98	-1038.8	987.87	575.9	-1166.2	599.46	506.82	-1024.8	549.76	384.85	-822.78	566.97	374.18	-842.07	569.89	214.71	-1122.2	64.873	421.43	-444.34	215.19	260.78	-1199.8	52.893	372.36	-503.26	150.34	311.41	-521.13	132.98	182.94	-1230.6	50.386	504.45	-1320.1	154.89	472	-1306.7	157.52	369.46	-654.48	161.43	294.21	-675.87	144.72	225.37	-725.74	54.421	260.82	-1421	151.45	413.3	-700.96	34.548	228.14	-1421.8	127.41	447.46	-692.96	36.526	293.2	-1416.8	121.09	386.71	-1307	455.24	499.97	-1242.7	428.57	521.13	-1258.4	356.47	503.03	-1310.4	372.67	490.04	-1115.6	866.88	549.69	-1043.7	864.2	560.53	-1067.4	776.02	549.12	-1135.1	779.95	536.82	-762.8	517.71	226.18	-810.8	492.12	213.22	-787.04	433.57	218.28	-744.79	464.29	231.66	-866.8	827.34	196.13	-928.22	810.15	162.08	-896.59	742.92	180.43	-842.06	758.96	210.71
3	0.0083625	-783.77	1815.7	316.16	-917.61	1553.9	563.36	-974.55	1552.1	107.5	-946.19	1086.2	542.12	-916.26	1027.7	192.33	-1151.3	1100.2	394.29	-1131.3	1085.4	266.89	-1161.2	1064.7	328.59	-965.33	1132	147.88	-975.92	1202.9	544.36	-964.85	945.75	144.72	-1033.3	986.87	575.67	-1162.3	599.2	506.7	-1019.7	548.75	385.37	-816.19	565.68	374.45	-835.34	568.54	215.17	-1122.3	64.838	421.44	-436.07	215.82	261.55	-1199.6	52.774	372.38	-494.6	150.85	312.36	-512.49	133.3	183.72	-1230.4	50.425	504.5	-1319.3	155.77	471.96	-1305.7	158.23	369.46	-645.89	161	294.94	-667.19	144.13	226.11	-716.71	53.784	261.59	-1420.1	152.8	413.24	-691.85	34.047	228.89	-1421	128.71	447.38	-683.87	36.012	293.94	-1416	122.46	386.66	-1304	455.94	499.78	-1240	428.83	521.04	-1256.1	356.84	502.97	-1308	373.42	489.91	-1110.6	866.38	549.37	-1038.7	863.39	560.4	-1062.8	775.31	549.04	-1130.4	779.55	536.55	-755.81	516.74	226.68	-803.68	490.93	213.71	-779.66	432.49	218.81	-737.55	463.41	232.18	-860.05	825.99	196	-921.4	808.7	161.99	-889.76	741.49	180.52	-835.27	757.67	210.79
4	0.012544	-777.48	1814.2	315.1	-911.02	1552.6	562.79	-968.17	1550.4	107	-940.15	1085	541.86	-909.59	1026.2	192.09	-1145	1098.7	393.51	-1124.8	1083.7	266.2	-1154.9	1063.1	327.88	-958.04	1130.8	147.56	-969.95	1201.5	543.91	-958.02	944.08	144.47	-1027.6	985.83	575.44	-1158.3	598.91	506.59	-1014.4	547.71	385.91	-809.31	564.39	374.73	-828.36	567.18	215.62	-1122.3	64.8	421.44	-427.64	216.2	262.31	-1199.5	52.652	372.4	-485.83	151.17	313.3	-503.77	133.43	184.51	-1230.2	50.461	504.55	-1318.5	156.68	471.93	-1304.7	158.97	369.46	-637.21	160.48	295.68	-658.43	143.44	226.87	-707.64	53.155	262.39	-1419.2	154.23	413.18	-682.74	33.53	229.68	-1420.2	130.06	447.3	-674.77	35.476	294.71	-1415.2	123.9	386.6	-1300.9	456.67	499.58	-1237.1	429.09	520.96	-1253.8	357.21	502.91	-1305.5	374.19	489.78	-1105.3	865.85	549.03	-1033.5	862.53	560.28	-1058	774.56	548.96	-1125.5	779.13	536.27	-748.6	515.72	227.17	-796.35	489.7	214.19	-772.09	431.36	219.36	-730.11	462.47	232.7	-853.05	824.61	195.89	-914.34	807.22	161.91	-882.68	740.04	180.62	-828.23	756.35	210.88
5	0.016725	-771.02	1812.7	314.03	-904.24	1551.1	562.19	-961.59	1548.7	106.47	-933.94	1083.8	541.6	-902.72	1024.7	191.86	-1138.6	1097.2	392.72	-1118.1	1081.9	265.5	-1148.4	1061.5	327.17	-950.56	1129.6	147.22	-963.8	1200.2	543.45	-951	942.39	144.22	-1021.7	984.75	575.21	-1154.1	598.6	506.47	-1008.8	546.65	386.47	-802.19	563.12	375.03	-821.17	565.8	216.05	-1122.3	64.761	421.45	-419.13	216.29	263.05	-1199.3	52.526	372.41	-477.05	151.24	314.22	-495.07	133.36	185.29	-1229.9	50.494	504.6	-1317.7	157.61	471.9	-1303.6	159.74	369.47	-628.52	159.87	296.43	-649.7	142.66	227.64	-698.65	52.547	263.23	-1418.2	155.71	413.11	-673.75	33.004	230.5	-1419.4	131.47	447.21	-665.76	34.924	295.51	-1414.3	125.39	386.53	-1297.7	457.4	499.38	-1234.2	429.35	520.87	-1251.4	357.6	502.86	-1302.9	374.98	489.65	-1099.9	865.3	548.68	-1028.2	861.65	560.15	-1053	773.78	548.89	-1120.5	778.67	535.97	-741.21	514.64	227.65	-788.84	488.45	214.67	-764.38	430.2	219.89	-722.51	461.47	233.21	-845.84	823.22	195.8	-907.08	805.73	161.87	-875.41	738.58	180.74	-820.98	755.02	210.99
6	0.020906	-764.43	1811.1	312.94	-897.31	1549.7	561.56	-954.86	1547	105.9	-927.6	1082.6	541.35	-895.7	1023.1	191.63	-1131.9	1095.7	391.92	-1111.3	1080.1	264.79	-1141.9	1059.8	326.45	-942.92	1128.5	146.88	-957.5	1198.8	542.98	-943.8	940.7	143.98	-1015.7	983.63	574.98	-1149.8	598.26	506.35	-1003.2	545.57	387.04	-794.84	561.88	375.35	-813.8	564.44	216.47	-1122.4	64.719	421.46	-410.62	216.04	263.77	-1199.2	52.399	372.41	-468.34	151.04	315.1	-486.47	133.03	186.07	-1229.7	50.524	504.65	-1316.8	158.56	471.88	-1302.5	160.53	369.48	-619.92	159.14	297.19	-641.07	141.79	228.42	-689.84	51.975	264.09	-1417.2	157.25	413.05	-664.97	32.476	231.36	-1418.6	132.94	447.12	-656.95	34.363	296.34	-1413.4	126.95	386.47	-1294.4	458.15	499.16	-1231.1	429.61	520.79	-1248.9	357.98	502.8	-1300.2	375.77	489.52	-1094.4	864.71	548.31	-1022.7	860.74	560.03	-1047.9	772.98	548.82	-1115.3	778.18	535.67	-733.67	513.53	228.11	-781.22	487.19	215.14	-756.58	429.01	220.42	-714.81	460.42	233.7	-838.46	821.84	195.74	-899.66	804.24	161.85	-867.96	737.13	180.88	-813.56	753.69	211.12
7	0.025087	-757.72	1809.5	311.85	-890.24	1548.3	560.88	-947.99	1545.2	105.3	-921.14	1081.3	541.11	-888.54	1021.5	191.4	-1125.2	1094.2	391.13	-1104.3	1078.3	264.08	-1135.1	1058.1	325.72	-935.16	1127.3	146.53	-951.08	1197.3	542.51	-936.47	939	143.75	-1009.6	982.48	574.75	-1145.3	597.9	506.24	-997.38	544.48	387.62	-787.31	560.68	375.68	-806.29	563.1	216.87	-1122.4	64.675	421.46	-402.16	215.42	264.46	-1199	52.269	372.41	-459.78	150.54	315.95	-478.05	132.44	186.83	-1229.4	50.55	504.71	-1315.8	159.52	471.86	-1301.3	161.34	369.5	-611.47	158.31	297.93	-632.63	140.81	229.19	-681.31	51.452	264.98	-1416.1	158.85	412.98	-656.5	31.958	232.25	-1417.7	134.46	447.04	-648.44	33.802	297.19	-1412.5	128.56	386.41	-1291	458.91	498.94	-1228	429.87	520.71	-1246.3	358.37	502.75	-1297.4	376.58	489.39	-1088.7	864.1	547.92	-1017.1	859.81	559.92	-1042.7	772.16	548.75	-1110.1	777.67	535.35	-726.03	512.37	228.54	-773.51	485.92	215.59	-748.74	427.8	220.94	-707.03	459.32	234.17	-830.95	820.46	195.7	-892.11	802.77	161.87	-860.38	735.69	181.04	-806	752.36	211.25
8	0.029269	-750.92	1808	310.75	-883.07	1546.8	560.17	-941.02	1543.4	104.66	-914.6	1079.9	540.89	-881.28	1020	191.18	-1118.3	1092.6	390.33	-1097.3	1076.5	263.37	-1128.3	1056.4	324.99	-927.3	1126.1	146.18	-944.54	1195.9	542.03	-929.03	937.33	143.54	-1003.4	981.31	574.52	-1140.7	597.52	506.13	-991.47	543.38	388.21	-779.63	559.53	376.02	-798.67	561.8	217.24	-1122.5	64.628	421.47	-393.81	214.39	265.11	-1198.9	52.136	372.4	-451.44	149.71	316.75	-469.89	131.57	187.56	-1229.2	50.571	504.77	-1314.8	160.5	471.85	-1300.1	162.18	369.52	-603.24	157.36	298.67	-624.44	139.74	229.94	-673.12	50.994	265.87	-1415	160.51	412.91	-648.42	31.461	233.15	-1416.7	136.03	446.95	-640.3	33.253	298.05	-1411.5	130.23	386.35	-1287.4	459.67	498.71	-1224.7	430.13	520.63	-1243.6	358.77	502.71	-1294.6	377.4	489.26	-1083	863.47	547.52	-1011.5	858.86	559.81	-1037.4	771.31	548.7	-1104.7	777.12	535.03	-718.31	511.19	228.95	-765.75	484.67	216.03	-740.9	426.58	221.44	-699.23	458.17	234.61	-823.34	819.1	195.69	-884.46	801.32	161.93	-852.71	734.27	181.22	-798.34	751.06	211.4
9	0.03345	-744.07	1806.4	309.65	-875.81	1545.3	559.42	-933.96	1541.6	103.99	-907.99	1078.5	540.67	-873.93	1018.4	190.98	-1111.3	1091.1	389.55	-1090.2	1074.8	262.66	-1121.4	1054.8	324.27	-919.38	1125	145.82	-937.92	1194.5	541.55	-921.49	935.67	143.34	-997.07	980.11	574.3	-1136.1	597.12	506.03	-985.47	542.28	388.81	-771.82	558.45	376.37	-790.95	560.55	217.58	-1122.6	64.581	421.47	-385.63	212.94	265.71	-1198.7	52	372.39	-443.37	148.55	317.5	-462.04	130.41	188.27	-1228.9	50.586	504.83	-1313.6	161.48	471.86	-1298.8	163.04	369.56	-595.29	156.3	299.38	-616.57	138.58	230.68	-665.35	50.617	266.77	-1413.7	162.22	412.84	-640.79	30.998	234.06	-1415.7	137.67	446.87	-632.61	32.728	298.91	-1410.5	131.96	386.29	-1283.8	460.44	498.48	-1221.4	430.38	520.57	-1240.8	359.16	502.67	-1291.6	378.22	489.14	-1077.1	862.81	547.11	-1005.8	857.9	559.71	-1032.1	770.45	548.65	-1099.2	776.55	534.7	-710.55	510	229.33	-757.98	483.44	216.44	-733.09	425.37	221.92	-691.44	457	235.03	-815.64	817.76	195.71	-876.74	799.89	162.02	-844.96	732.89	181.42	-790.6	749.77	211.56
10	0.037631	-737.16	1804.9	308.56	-868.5	1543.9	558.64	-926.83	1539.8	103.29	-901.32	1077.1	540.47	-866.52	1016.9	190.78	-1104.3	1089.5	388.78	-1083	1073	261.97	-1114.4	1053.1	323.55	-911.42	1123.9	145.45	-931.23	1193	541.07	-913.87	934.04	143.17	-990.72	978.9	574.08	-1131.3	596.69	505.94	-979.38	541.18	389.42	-763.92	557.43	376.71	-783.17	559.37	217.89	-1122.6	64.531	421.48	-377.67	211.05	266.28	-1198.5	51.861	372.37	-435.63	147.05	318.19	-454.54	128.95	188.95	-1228.6	50.596	504.89	-1312.4	162.48	471.87	-1297.4	163.92	369.6	-587.67	155.14	300.06	-609.06	137.34	231.38	-658.04	50.335	267.64	-1412.5	163.99	412.78	-633.68	30.584	234.96	-1414.7	139.37	446.79	-625.42	32.24	299.76	-1409.3	133.76	386.23	-1280.1	461.22	498.25	-1218	430.63	520.51	-1238	359.55	502.63	-1288.5	379.05	489.02	-1071.3	862.13	546.68	-999.99	856.93	559.61	-1026.6	769.58	548.6	-1093.7	775.95	534.36	-702.77	508.79	229.68	-750.21	482.25	216.83	-725.35	424.17	222.37	-683.68	455.79	235.42	-807.9	816.46	195.76	-868.98	798.51	162.15	-837.17	731.53	181.63	-782.8	748.51	211.72
11	0.041812	-730.23	1803.4	307.48	-861.13	1542.4	557.81	-919.65	1537.9	102.54	-894.61	1075.7	540.29	-859.05	1015.4	190.6	-1097.3	1087.9	388.02	-1075.7	1071.3	261.28	-1107.4	1051.4	322.83	-903.44	1122.8	145.09	-924.48	1191.6	540.59	-906.2	932.45	143.01	-984.32	977.68	573.86	-1126.4	596.25	505.85	-973.21	540.09	390.03	-755.96	556.5	377.05	-775.34	558.28	218.18	-1122.7	64.48	421.48	-369.95	208.73	266.79	-1198.4	51.718	372.34	-428.25	145.22	318.82	-447.44	127.2	189.59	-1228.3	50.601	504.96	-1311.1	163.49	471.9	-1296	164.82	369.65	-580.41	153.89	300.71	-601.96	136.02	232.05	-651.25	50.162	268.49	-1411.1	165.82	412.72	-627.12	30.231	235.84	-1413.5	141.15	446.72	-618.77	31.801	300.59	-1408.2	135.61	386.18	-1276.2	462	498.01	-1214.4	430.88	520.46	-1235	359.95	502.61	-1285.4	379.88	488.91	-1065.3	861.43	546.25	-994.15	855.96	559.52	-1021.1	768.7	548.57	-1088.1	775.33	534.02	-695	507.59	230	-742.48	481.12	217.2	-717.7	423	222.8	-675.98	454.58	235.77	-800.13	815.18	195.84	-861.2	797.16	162.31	-829.36	730.22	181.85	-774.98	747.29	211.88
